<?xml version="1.0" standalone="no"?><!DOCTYPE svg PUBLIC "-//W3C//DTD SVG 1.1//EN" "http://www.w3.org/Graphics/SVG/1.1/DTD/svg11.dtd"><svg t="1525232958200" class="icon" style="" viewBox="0 0 1024 1024" version="1.1" xmlns="http://www.w3.org/2000/svg" p-id="1966" xmlns:xlink="http://www.w3.org/1999/xlink" width="200" height="200"><defs><style type="text/css"></style></defs><path d="M512 394.811c59.352 0 107.639-48.287 107.639-107.638S571.352 179.536 512 179.536s-107.637 48.287-107.637 107.637S452.648 394.811 512 394.811z m0-164.11c31.14 0 56.473 25.333 56.473 56.472S543.14 343.646 512 343.646s-56.472-25.333-56.472-56.473S480.86 230.701 512 230.701zM619.637 737.796c0-59.351-48.286-107.638-107.638-107.638-59.352 0-107.638 48.287-107.638 107.638 0 59.351 48.287 107.638 107.638 107.638 59.353 0 107.638-48.287 107.638-107.638z m-164.11 0c0-31.14 25.334-56.473 56.473-56.473s56.473 25.333 56.473 56.473S543.14 794.269 512 794.269s-56.472-25.334-56.472-56.473zM736.827 617.892c59.351 0 107.638-48.287 107.638-107.638s-48.287-107.637-107.638-107.637-107.639 48.285-107.639 107.637 48.287 107.638 107.639 107.638z m0-164.11c31.139 0 56.473 25.333 56.473 56.472 0 31.138-25.334 56.472-56.473 56.472s-56.474-25.334-56.474-56.472c0-31.139 25.334-56.472 56.474-56.472zM286.203 407.078c-59.351 0-107.637 48.287-107.637 107.638s48.287 107.637 107.637 107.637 107.638-48.286 107.638-107.637-48.286-107.638-107.638-107.638z m0 164.11c-31.139 0-56.472-25.334-56.472-56.472 0-31.14 25.333-56.472 56.472-56.472s56.473 25.333 56.473 56.472c0 31.138-25.333 56.472-56.473 56.472z" fill="#bfbfbf" p-id="1967"></path><path d="M949.238 932.579H725.907c44.138-22.45 84.282-51.622 119.667-87.006 43.316-43.315 77.326-93.763 101.088-149.94 24.606-58.177 37.082-119.959 37.082-183.633 0-63.674-12.476-125.456-37.082-183.632C922.9 272.19 888.89 221.742 845.574 178.427 802.258 135.11 751.81 101.1 695.632 77.338c-58.176-24.605-119.958-37.082-183.631-37.082S386.545 52.732 328.369 77.338C272.19 101.1 221.743 135.111 178.427 178.427 135.11 221.743 101.1 272.19 77.338 328.367 52.733 386.545 40.256 448.327 40.256 512c0 63.674 12.476 125.456 37.082 183.632 23.762 56.178 57.773 106.626 101.089 149.941 43.316 43.317 93.763 77.327 149.942 101.089 58.176 24.606 119.958 37.082 183.632 37.082 2.42 0 4.837-0.024 7.252-0.06 0.553 0.036 1.11 0.06 1.671 0.06H949.24c14.13 0 25.583-11.454 25.583-25.582s-11.455-25.583-25.585-25.583zM214.606 809.394c-38.633-38.634-68.963-83.615-90.144-133.694-21.925-51.834-33.04-106.912-33.04-163.7s11.115-111.866 33.04-163.7c21.181-50.079 51.51-95.06 90.144-133.693 38.634-38.634 83.614-68.963 133.694-90.144 51.834-21.925 106.912-33.04 163.7-33.04 56.788 0 111.865 11.115 163.7 33.04 50.079 21.181 95.061 51.51 133.694 90.144 38.633 38.633 68.963 83.614 90.144 133.693 21.925 51.834 33.04 106.912 33.04 163.7s-11.115 111.866-33.04 163.7c-21.181 50.079-51.51 95.061-90.144 133.694-38.634 38.633-83.615 68.963-133.694 90.144-51.834 21.925-106.912 33.04-163.7 33.04-56.79 0-111.866-11.115-163.7-33.04-50.08-21.181-95.06-51.51-133.694-90.144z" fill="#bfbfbf" p-id="1968"></path></svg>